<?xml version="1.0" standalone="no"?><!DOCTYPE svg PUBLIC "-//W3C//DTD SVG 1.1//EN" "http://www.w3.org/Graphics/SVG/1.1/DTD/svg11.dtd"><svg t="1701828096018" class="icon" viewBox="0 0 1024 1024" version="1.1" xmlns="http://www.w3.org/2000/svg" p-id="4027" xmlns:xlink="http://www.w3.org/1999/xlink" width="200" height="200"><path d="M925.811575 698.587907c-13.271922-7.673955-28.819831-7.853954-41.751755-1.857989l-49.745709-28.719832 43.669745-13.969918c13.72992-4.397974 21.285875-19.065888 16.887901-32.797808-4.397974-13.70992-19.065888-21.265875-32.797808-16.887901l-88.77748 28.439833-53.303688-30.777819 43.669744-13.989918c13.70992-4.397974 21.265875-19.065888 16.887901-32.777808-4.395974-13.72992-19.085888-21.285875-32.797807-16.887901l-88.77748 28.419833-13.769919-7.953953a138.345189 138.345189 0 0 0 5.295968-37.873778 137.761193 137.761193 0 0 0-10.431938-52.723692l18.945889-10.931935 88.079483 28.199834c12.291928 3.917977 26.041847-1.179993 31.857814-12.691925 7.433956-14.729914-0.199999-31.937813-15.249911-36.773785l-43.669744-13.969918 53.303688-30.77782 88.079484 28.199835c12.291928 3.937977 26.041847-1.179993 31.857813-12.691926 7.453956-14.729914-0.179999-31.937813-15.249911-36.753784l-43.649744-13.989918 49.725709-28.699832c12.931924 5.975965 28.479833 5.815966 41.751755-1.857989 21.703873-12.531927 29.139829-40.271764 16.607903-61.957637s-40.251764-29.119829-61.957637-16.607903c-13.271922 7.673955-21.205876 21.045877-22.483868 35.255794l-49.725709 28.699831 9.713943-44.789737c3.057982-14.089917-5.875966-27.979836-19.945883-31.017818-14.069918-3.057982-27.961836 5.875966-31.017818 19.945883l-19.765885 91.097466-53.323687 30.77782 9.733943-44.809738c3.057982-14.069918-5.875966-27.959836-19.945883-31.017818-14.089917-3.057982-27.979836 5.875966-31.017819 19.965883l-19.785884 91.097466-21.545873 12.431927c-19.425886-20.005883-44.829737-34.1758-73.329571-39.611768V357.347906l68.991596-62.675633c10.671937-9.693943 11.471933-26.181847 1.77799-36.833784-9.673943-10.671937-26.181847-11.471933-36.833785-1.777989l-33.935801 30.817819v-61.557639l68.991596-62.675633c10.671937-9.673943 11.471933-26.161847 1.77799-36.833784-9.673943-10.651938-26.181847-11.451933-36.833785-1.75799l-33.935801 30.81782v-57.419664c11.651932-8.213952 19.265887-21.763872 19.265887-37.093783 0-25.061853-20.305881-45.367734-45.347734-45.367734s-45.347734 20.305881-45.347734 45.367734c0 15.32991 7.613955 28.879831 19.265887 37.093783v57.419664l-33.937801-30.82582c-11.711931-10.631938-30.439822-8.633949-39.471769 5.17597-7.055959 10.791937-4.595973 25.241852 4.955971 33.915801l68.451599 62.177636v61.557639l-33.935801-30.817819c-11.711931-10.631938-30.439822-8.633949-39.471769 5.175969-7.055959 10.791937-4.595973 25.261852 4.955971 33.935802l68.451599 62.177635v27.621838c-28.479833 5.435968-53.841685 19.605885-73.249571 39.591768L391.100708 412.125585l-19.785884-91.097466c-3.037982-14.089917-16.927901-23.023865-31.017818-19.965883-14.069918 3.057982-23.003865 16.947901-19.945883 31.017818l9.733943 44.809738-53.323688-30.77782-19.765884-91.097466c-3.057982-14.069918-16.947901-23.003865-31.017818-19.945883-14.069918 3.037982-23.003865 16.927901-19.945883 31.017818l9.713943 44.789737-49.725709-28.699831c-1.277993-14.209917-9.213946-27.581838-22.483868-35.255794-21.705873-12.511927-49.42571-5.07597-61.957637 16.607903-12.531927 21.685873-5.09597 49.42571 16.607903 61.957637 13.271922 7.673955 28.819831 7.833954 41.751755 1.857989l49.725709 28.699832-43.649745 13.989918c-15.069912 4.815972-22.703867 22.023871-15.24991 36.753784 5.815966 11.511933 19.565885 16.627903 31.857813 12.691926l88.079484-28.199835 53.303688 30.77782-43.669744 13.969918c-15.049912 4.835972-22.683867 22.043871-15.249911 36.773785 5.815966 11.511933 19.565885 16.607903 31.857813 12.691925l88.079484-28.199834 18.945889 10.931935a137.717193 137.717193 0 0 0-10.431939 52.723692c0 13.151923 1.877989 25.841849 5.295969 37.873778l-13.769919 7.953953-88.77748-28.419833c-13.70992-4.395974-28.399834 3.157981-32.797808 16.887901-4.377974 13.70992 3.177981 28.379834 16.887901 32.777808l43.669744 13.989918-53.303687 30.777819-88.77748-28.439833c-13.72992-4.377974-28.399834 3.177981-32.797808 16.887901-4.395974 13.72992 3.157981 28.399834 16.887901 32.797808l43.669744 13.969918-49.745708 28.719832c-12.931924-5.995965-28.479833-5.815966-41.751756 1.857989-21.705873 12.511927-29.139829 40.251764-16.607902 61.957637 12.531927 21.685873 40.271764 29.119829 61.957637 16.587903 13.269922-7.653955 21.205876-21.045877 22.483868-35.235794l49.725709-28.719832-9.713943 44.809738c-3.35798 15.449909 7.733955 30.67782 24.203858 31.597815 12.891924 0.719996 24.183858-8.653949 26.921842-21.245876l19.625885-90.37747 53.303688-30.77782-9.733943 44.789737c-3.35798 15.449909 7.733955 30.67782 24.223858 31.597815 12.871925 0.719996 24.163858-8.633949 26.901842-21.245875l19.625885-90.377471 11.211934-6.475962c20.265881 26.241846 49.705709 45.009736 83.541511 51.463699v9.713943l-68.451599 62.177636c-9.553944 8.673949-12.01193 23.143864-4.955971 33.935801 9.033947 13.809919 27.761837 15.809907 39.471769 5.175969l33.935801-30.817819v61.557639l-68.451599 62.177636c-9.553944 8.673949-12.01193 23.123865-4.955971 33.915801 9.033947 13.809919 27.761837 15.807907 39.471769 5.17597l33.935801-30.81782v57.419664c-11.651932 8.213952-19.265887 21.765872-19.265887 37.093783 0 25.061853 20.305881 45.367734 45.347734 45.367734s45.347734-20.305881 45.347734-45.367734c0-15.32991-7.613955-28.879831-19.265887-37.093783v-57.419664l33.935801 30.81782c10.651938 9.693943 27.161841 8.893948 36.833785-1.75799 9.693943-10.671937 8.893948-27.161841-1.77799-36.833784l-68.991596-62.677633v-61.557639l33.935801 30.817819c10.651938 9.673943 27.161841 8.893948 36.833785-1.777989 9.693943-10.651938 8.893948-27.141841-1.77799-36.833784l-68.991596-62.675633v-9.693943c33.855802-6.455962 63.335629-25.221852 83.62151-51.483699l11.211935 6.475962 19.625885 90.377471c2.737984 12.611926 14.029918 21.963871 26.901842 21.245875 16.487903-0.919995 27.581838-16.147905 24.223858-31.597815l-9.733943-44.789737 53.303688 30.77782 19.625885 90.37747c2.737984 12.591926 14.029918 21.963871 26.921842 21.245876 16.467904-0.919995 27.561839-16.147905 24.203858-31.597815l-9.713943-44.809738 49.725709 28.719832c1.277993 14.189917 9.213946 27.579838 22.483868 35.235793 21.683873 12.531927 49.42571 5.09597 61.957637-16.587902 12.529927-21.703873 5.09597-49.44571-16.609903-61.955637zM512.02 587.624557c-36.833784 0-66.673609-29.839825-66.673609-66.673609 0-36.813784 29.839825-66.673609 66.673609-66.67361s66.673609 29.859825 66.673609 66.67361c0 36.833784-29.839825 66.673609-66.673609 66.673609z" fill="#D8ECFE" p-id="4028"></path><path d="M942.461478 263.528456c-11.331934-19.625885-35.135794-27.579838-55.641674-19.625885a45.203735 45.203735 0 0 1 22.943865 19.625885c12.531927 21.685873 5.09597 49.42571-16.607902 61.957637a45.191735 45.191735 0 0 1-6.295963 3.017982c12.351928 4.755972 26.661844 4.117976 38.993771-3.017982 21.703873-12.531927 29.137829-40.271764 16.607903-61.957637z m-16.649903 435.059451c-12.351928-7.135958-26.661844-7.793954-39.013771-3.017983a45.629733 45.629733 0 0 1 6.315963 3.017983c21.705873 12.511927 29.139829 40.251764 16.607903 61.957637a45.239735 45.239735 0 0 1-22.923866 19.625885c20.50588 7.953953 44.28974 0 55.621674-19.625885 12.531927-21.705873 5.09797-49.44771-16.607903-61.957637z m-47.78572-328.552075l-43.649744-13.989918 49.725709-28.699832c-8.291951-0.327998-15.843907-0.293998-23.187864-2.975983a6.239963 6.239963 0 0 0-5.26597 0.447998l-41.781755 24.175858c-4.685973 2.711984-3.935977 9.695943 1.221993 11.347934l30.241823 9.693943c15.069912 4.815972 22.703867 22.023871 15.249911 36.753784a24.815855 24.815855 0 0 1-8.67395 9.633944l9.513945 3.057982c12.291928 3.937977 26.041847-1.179993 31.857813-12.691926 7.451956-14.729914-0.181999-31.937813-15.251911-36.753784z m-60.059648 387.949727l-9.721943-44.801738-22.363869-15.141911c-4.711972-3.189981-10.885936 1.071994-9.573944 6.609961l6.425963 27.125841c2.045988 8.635949 3.177981 17.477898 3.135981 26.353846-0.078 16.279905-3.851977 20.917877-9.613943 25.61785 4.817972 3.957977 10.951936 6.195964 17.507897 5.835966 16.469903-0.919995 27.561839-16.149905 24.203858-31.599815z m-54.261682-321.956114l-43.669744-13.969918 53.303688-30.77782-17.845896-5.867965a6.241963 6.241963 0 0 0-5.05197 0.513997l-54.203683 31.037818c-4.799972 2.747984-3.917977 9.919942 1.403992 11.425933l34.947795 9.877942c15.049912 4.835972 21.105876 19.805884 13.66992 34.535798a24.689855 24.689855 0 0 1-8.673949 9.633943l9.513944 3.057982c12.291928 3.917977 26.041847-1.179993 31.857814-12.691925 7.431956-14.731914-0.201999-31.939813-15.251911-36.775785z m-60.057648 255.9425l-9.729943-44.795737-22.755867-12.665926c-4.593973-2.555985-10.095941 1.361992-9.183946 6.537962l8.973948 50.921701c2.157987 9.933942-1.65999 19.765884-9.033947 25.781849 4.815972 3.937977 10.951936 6.175964 17.507897 5.815966 16.485903-0.917995 27.579838-16.145905 24.221858-31.595815z m-53.143689-171.020997a137.761193 137.761193 0 0 0-10.431938-52.723692l7.273957-4.197975-21.025877-6.73596-16.713902 8.037952a6.229963 6.229963 0 0 0-3.069982 7.993954c6.299963 15.183911 14.049918 36.115788 7.513956 64.477622a6.241963 6.241963 0 0 0 3.263981 6.983959l27.891837 14.033918a138.23119 138.23119 0 0 0 5.297968-37.869778z m-41.671755-395.145685c-9.313945-10.25194-24.981854-11.371933-35.635792-2.757984 1.039994 0.819995 2.019988 1.73799 2.937983 2.757984 9.691943 10.671937 8.893948 27.161841-1.779989 36.833784l-66.947608 60.817644a6.247963 6.247963 0 0 0-2.045988 4.619973v74.389564c0 5.417968 6.429962 8.263952 10.439939 4.621973l22.257869-20.215882v-61.557639l68.991596-62.675633c10.675937-9.673943 11.475933-26.161847 1.78199-36.833784z m-1.77799 168.86301c10.671937-9.693943 11.471933-26.181847 1.77799-36.833784-9.313945-10.27194-24.981854-11.391933-35.635792-2.777983 1.039994 0.839995 2.019988 1.75799 2.937983 2.777983 9.691943 10.651938 8.893948 27.141841-1.779989 36.833784l-66.947608 60.817644a6.247963 6.247963 0 0 0-2.045988 4.619973v39.105771a6.247963 6.247963 0 0 0 5.06397 6.129964c24.213858 4.665973 42.465751 8.887948 62.377635 24.363857a6.255963 6.255963 0 0 0 8.081952-0.303998l17.831896-16.397904c-17.307899-13.889919-37.993777-23.743861-60.657645-28.059836v-27.601838z m0 434.657454l-68.991596-62.675633v-9.693943a137.861192 137.861192 0 0 0 65.015619-31.737814l-10.717937-14.859913c-2.179987-3.023982-6.547962-3.515979-9.263946-0.961995-19.703885 18.533891-43.217747 23.479862-71.767579 24.645856a6.231963 6.231963 0 0 0-5.963965 6.229963v23.613862c0 1.75999 0.741996 3.43798 2.045988 4.619973l66.947608 60.817644c10.671937 9.693943 11.471933 26.181847 1.779989 36.833784-0.919995 1.019994-1.899989 1.937989-2.937983 2.777984 10.651938 8.59395 26.321846 7.493956 35.635792-2.777984 9.689943-10.649938 8.889948-27.137841-1.78199-36.831784z m0 132.029226l-68.991596-62.677633v-61.557639l-22.257869-20.215882c-4.011976-3.643979-10.439939-0.797995-10.439939 4.621973v74.389564c0 1.75999 0.741996 3.43798 2.045988 4.619973l66.947608 60.819644c10.671937 9.673943 11.471933 26.161847 1.779989 36.833784a23.92986 23.92986 0 0 1-2.937983 2.757984c10.651938 8.61395 26.321846 7.493956 35.635792-2.757984 9.689943-10.671937 8.889948-27.161841-1.78199-36.833784zM517.07797 15.261911c-7.595955-0.833995-14.887913 0.219999-21.447874 2.777983 16.967901 6.555962 28.99983 23.023865 28.99983 42.309752 0 14.311916-6.637961 27.073841-17.0019 35.389793a6.139964 6.139964 0 0 0-2.265987 4.799972v69.91959c0 5.417968 6.429962 8.263952 10.439939 4.621973l22.257869-20.215881v-57.419664c12.891924-9.087947 20.841878-24.709855 19.003889-42.045754-2.217987-20.925877-19.069888-37.841778-39.985766-40.137764z m20.983877 911.28666v-27.719838l-22.257869-20.215881c-4.011976-3.643979-10.439939-0.797995-10.439939 4.621973v40.221764c0 1.857989 0.815995 3.635979 2.265987 4.799972 10.363939 8.315951 17.0019 21.077876 17.0019 35.389793 0 19.285887-12.03193 35.75579-28.99983 42.309752a44.937737 44.937737 0 0 0 16.347904 3.057982c25.041853 0 45.347734-20.305881 45.347734-45.367734 0-15.33191-7.613955-28.883831-19.265887-37.097783z" fill="#C4E2FF" p-id="4029"></path><path d="M453.390343 485.791154a14.993912 14.993912 0 0 0-18.933889 9.533944 81.619522 81.619522 0 0 0-4.105976 25.62785c0 45.031736 36.635785 81.667521 81.667522 81.667521s81.667521-36.635785 81.667521-81.667521-36.635785-81.667521-81.667521-81.667522c-4.833972 0-9.679943 0.425998-14.405916 1.267993a14.989912 14.989912 0 1 0 5.259969 29.515827 52.235694 52.235694 0 0 1 9.145947-0.803996c28.501833 0 51.689697 23.187864 51.689697 51.689698s-23.187864 51.687697-51.689697 51.687697-51.689697-23.187864-51.689697-51.687697c0-5.553967 0.871995-11.013935 2.593985-16.229905a14.985912 14.985912 0 0 0-9.531945-18.933889z" p-id="4030" data-spm-anchor-id="a313x.manage_type_myprojects.0.i10.68d93a81rpKcXW" class="selected" fill="#dbdbdb"></path><path d="M933.313531 685.601983a60.439646 60.439646 0 0 0-47.909719-5.403969l-14.257916-8.231951 11.411933-3.651979a40.807761 40.807761 0 0 0 23.989859-20.311881 40.789761 40.789761 0 0 0 2.599985-31.321816 40.805761 40.805761 0 0 0-20.309881-23.99186 40.809761 40.809761 0 0 0-31.325816-2.601985l-82.461517 26.397846-18.235893-10.527939 11.411933-3.651978a40.809761 40.809761 0 0 0 23.991859-20.311881 40.795761 40.795761 0 0 0 2.599985-31.323817 40.805761 40.805761 0 0 0-20.309881-23.991859 40.817761 40.817761 0 0 0-31.325817-2.601985l-80.447528 25.753849a153.355101 153.355101 0 0 0 2.749984-28.87583 152.639106 152.639106 0 0 0-7.043959-46.025731l2.319986-1.337992 81.761521 26.173847c19.429886 6.219964 40.843761-2.461986 49.805708-20.197882 5.479968-10.845936 5.955965-23.435863 1.303993-34.541798a41.02776 41.02776 0 0 0-25.365852-23.261863l-11.411933-3.651979 18.235893-10.527938 81.761521 26.173846c19.425886 6.219964 40.843761-2.461986 49.805709-20.197881 5.479968-10.845936 5.955965-23.437863 1.303992-34.545798a41.02576 41.02576 0 0 0-25.365851-23.259863l-11.411934-3.651979 14.257917-8.231952c15.915907 4.883971 33.315805 3.021982 47.907719-5.403968 28.815831-16.635903 38.723773-53.613686 22.087871-82.429517s-53.615686-38.721773-82.429517-22.087871a60.433646 60.433646 0 0 0-28.633833 38.787773l-14.257916 8.231952 2.541985-11.707932a40.799761 40.799761 0 0 0-5.593967-30.931818 40.779761 40.779761 0 0 0-25.825849-17.913895 40.807761 40.807761 0 0 0-30.929819 5.593967 40.803761 40.803761 0 0 0-17.915895 25.827848l-18.369892 84.613505-18.235893 10.529938 2.541985-11.707931c2.327986-10.719937 0.341998-21.705873-5.593967-30.931819s-15.107911-15.587909-25.827849-17.913895a40.815761 40.815761 0 0 0-30.929819 5.591967 40.807761 40.807761 0 0 0-17.915895 25.827849l-18.369892 84.613504-6.077964 3.509979c-17.509897-15.511909-38.117777-26.703844-60.571645-32.899807v-9.087947l64.093624-58.215659c8.121952-7.375957 12.883925-17.471898 13.409921-28.429833s-3.245981-21.463874-10.619937-29.581827a40.795761 40.795761 0 0 0-28.429834-13.411921c-10.977936-0.529997-21.463874 3.245981-29.585826 10.621938l-8.867948 8.055952v-21.059876l64.093624-58.213659c8.121952-7.375957 12.883925-17.471898 13.409921-28.429833s-3.245981-21.463874-10.619937-29.579827a40.789761 40.789761 0 0 0-28.429834-13.413922c-10.963936-0.517997-21.463874 3.245981-29.585826 10.621938l-8.867948 8.053953v-16.463904a60.439646 60.439646 0 0 0 19.273887-44.191741C572.319647 27.069841 545.249805 0 511.978 0s-60.343646 27.069841-60.343646 60.341646a60.431646 60.431646 0 0 0 19.273887 44.191741v16.463904l-8.867948-8.053953a41.01776 41.01776 0 0 0-32.827808-10.337939c-11.94593 1.525991-22.611868 8.231952-29.263828 18.401892-10.877936 16.629903-7.691955 39.513768 7.411956 53.231688l63.547628 57.719662v21.057876l-8.867948-8.053952a41.01576 41.01576 0 0 0-32.827808-10.33794c-11.94393 1.525991-22.611868 8.231952-29.263828 18.401892-10.877936 16.627903-7.691955 39.513768 7.411956 53.231689l63.547628 57.719661v9.109947c-22.421869 6.199964-42.999748 17.383898-60.487646 32.877807l-6.077964-3.509979-18.369893-84.613504c-2.327986-10.721937-8.689949-19.891883-17.915895-25.827849s-20.211882-7.923954-30.927818-5.593967c-10.719937 2.325986-19.891883 8.687949-25.827849 17.913895s-7.921954 20.211882-5.593967 30.931819l2.541985 11.707931-18.233893-10.529938-18.369893-84.613505c-2.325986-10.719937-8.689949-19.893883-17.915895-25.827848s-20.205882-7.921954-30.927818-5.593967a40.787761 40.787761 0 0 0-25.827849 17.915895 40.799761 40.799761 0 0 0-5.593967 30.931818l2.541985 11.707932-14.257917-8.231952a60.447646 60.447646 0 0 0-28.633832-38.787773c-28.813831-16.635903-65.791615-6.725961-82.429517 22.087871-8.059953 13.957918-10.20194 30.219823-6.029965 45.789732 4.171976 15.567909 14.157917 28.581833 28.115836 36.639785a60.431646 60.431646 0 0 0 47.907719 5.403968l14.257916 8.231952-11.409933 3.651979a41.01976 41.01976 0 0 0-25.367851 23.257863c-4.651973 11.107935-4.175976 23.697861 1.303992 34.545798 8.963947 17.735896 30.375822 26.411845 49.805708 20.197881l81.761521-26.173846 18.235893 10.527938-11.409933 3.651979a41.02376 41.02376 0 0 0-25.365851 23.261863c-4.651973 11.105935-4.175976 23.697861 1.303992 34.543798 8.961947 17.733896 30.369822 26.413845 49.805708 20.197882l81.761521-26.173847 2.319987 1.337992a152.721105 152.721105 0 0 0-7.043959 46.025731c0 9.683943 0.921995 19.351887 2.749984 28.87583l-80.445529-25.753849c-10.445939-3.34198-21.571874-2.419986-31.325816 2.601985s-16.965901 13.541921-20.309881 23.987859a40.795761 40.795761 0 0 0 2.599985 31.327817 40.803761 40.803761 0 0 0 23.991859 20.311881l11.411933 3.651978-18.235893 10.527939-82.467517-26.395846c-10.445939-3.34198-21.571874-2.419986-31.325816 2.601985s-16.965901 13.541921-20.309881 23.98786a40.789761 40.789761 0 0 0 2.599985 31.325816 40.799761 40.799761 0 0 0 23.991859 20.311881l11.411933 3.651979-14.257916 8.231951a60.445646 60.445646 0 0 0-47.90772 5.403969c-13.959918 8.059953-23.94386 21.071877-28.115835 36.639785s-2.029988 31.829813 6.029965 45.787732c8.057953 13.957918 21.071877 23.94386 36.639785 28.115835 15.571909 4.169976 31.831813 2.031988 45.789732-6.027965a60.435646 60.435646 0 0 0 28.633832-38.785772l14.257917-8.231952-2.541986 11.707931a41.02176 41.02176 0 0 0 7.459957 33.597803c7.293957 9.581944 18.435892 15.465909 30.569821 16.143906 19.829884 1.115993 38.065777-13.095923 42.393751-33.033807l18.213893-83.893508 18.235894-10.527938-2.541985 11.707931a41.02176 41.02176 0 0 0 7.461956 33.597803c7.293957 9.581944 18.433892 15.463909 30.565821 16.141906 19.835884 1.113993 38.065777-13.093923 42.393751-33.033807l16.659903-76.74555a153.233102 153.233102 0 0 0 60.821643 37.847778l-56.29367 51.1297c-15.101912 13.71792-18.287893 36.601786-7.409956 53.231689 6.651961 10.16794 17.317899 16.875901 29.261828 18.401892a41.02776 41.02776 0 0 0 32.827808-10.33594l8.867948-8.055952v21.055876l-63.547628 57.719662c-15.103912 13.71792-18.289893 36.601786-7.411956 53.231688 6.651961 10.16794 17.317899 16.875901 29.263828 18.401892a41.03376 41.03376 0 0 0 32.825808-10.335939l8.867948-8.053953v16.463904a60.439646 60.439646 0 0 0-19.273887 44.191741c0 33.271805 27.069841 60.343646 60.343646 60.343646s60.343646-27.069841 60.343647-60.343646a60.439646 60.439646 0 0 0-19.273887-44.191741v-16.463904l8.867948 8.053953a40.807761 40.807761 0 0 0 29.585826 10.621938 40.791761 40.791761 0 0 0 28.427834-13.407922c7.375957-8.119952 11.147935-18.625891 10.621937-29.583827s-5.287969-21.053877-13.409921-28.429833l-64.093624-58.215659v-21.055876l8.867948 8.057952c8.119952 7.373957 18.597891 11.141935 29.585826 10.619938a40.781761 40.781761 0 0 0 28.425834-13.407921 40.791761 40.791761 0 0 0 10.621937-29.583827 40.793761 40.793761 0 0 0-13.409921-28.429833l-56.815667-51.605698a153.191102 153.191102 0 0 0 60.881643-37.867778l16.661903 76.74555c4.327975 19.939883 22.541868 34.1518 42.393751 33.033807 12.131929-0.675996 23.273864-6.557962 30.567821-16.141906a41.02376 41.02376 0 0 0 7.459956-33.597803l-2.541985-11.709931 18.235893 10.527938 2.715984 12.509927a14.987912 14.987912 0 1 0 29.295829-6.359963l-4.123976-18.993889a14.979912 14.979912 0 0 0-7.153958-9.799942l-53.309688-30.77782a14.987912 14.987912 0 0 0-22.14387 16.161905l9.725943 44.805738a11.081935 11.081935 0 0 1-2.019988 9.077947c-1.157993 1.521991-3.785978 4.109976-8.379951 4.367974-5.279969 0.287998-10.19594-3.773978-11.429933-9.461945l-19.619885-90.37747a14.983912 14.983912 0 0 0-7.153958-9.801943l-11.213935-6.473962a14.991912 14.991912 0 0 0-19.359886 3.823978c-18.509892 23.979859-44.989736 40.285764-74.559563 45.915731a14.987912 14.987912 0 0 0-12.185929 14.725914v9.697943c0 4.225975 1.78399 8.255952 4.911971 11.095935l69.005596 62.675633a11.019935 11.019935 0 0 1 3.621979 7.677955 11.019935 11.019935 0 0 1-2.871983 7.989953 11.005936 11.005936 0 0 1-7.673955 3.619978 10.999936 10.999936 0 0 1-7.989954-2.867983l-33.935801-30.825819a14.989912 14.989912 0 0 0-25.067853 11.095935v61.557639c0 4.225975 1.78399 8.255952 4.911971 11.095935l69.005596 62.675633c2.191987 1.991988 3.47998 4.717972 3.621979 7.675955s-0.877995 5.793966-2.871983 7.989953a10.995936 10.995936 0 0 1-7.671955 3.617979 11.021935 11.021935 0 0 1-7.989954-2.867983l-33.935801-30.82382a14.991912 14.991912 0 0 0-25.067853 11.095935v57.425664a14.989912 14.989912 0 0 0 6.357963 12.253928 30.433822 30.433822 0 0 1 12.915924 24.839855c0 16.741902-13.62192 30.363822-30.363822 30.363822s-30.363822-13.62192-30.363822-30.363822c0-9.857942 4.827972-19.143888 12.915924-24.839855a14.989912 14.989912 0 0 0 6.357963-12.253928v-57.425664a14.991912 14.991912 0 0 0-25.067853-11.095935l-33.937801 30.82582a11.081935 11.081935 0 0 1-8.871948 2.789983c-1.895989-0.241999-5.453968-1.223993-7.973953-5.07597-2.895983-4.425974-1.829989-10.713937 2.477985-14.627914l68.459599-62.179636a14.987912 14.987912 0 0 0 4.911971-11.095935V737.125681a14.991912 14.991912 0 0 0-25.067853-11.095935l-33.937801 30.825819a11.065935 11.065935 0 0 1-8.871948 2.789984c-1.895989-0.241999-5.451968-1.221993-7.971953-5.07397-2.895983-4.425974-1.829989-10.715937 2.477985-14.629915l68.459599-62.179635a14.987912 14.987912 0 0 0 4.911971-11.095935v-9.713943a14.989912 14.989912 0 0 0-12.177929-14.723914c-29.539827-5.641967-55.991672-21.943871-74.485563-45.901731a14.983912 14.983912 0 0 0-19.359887-3.821978l-11.213934 6.473962a14.985912 14.985912 0 0 0-7.153958 9.799943l-19.619885 90.37747c-1.235993 5.687967-6.149964 9.757943-11.429933 9.461945-4.595973-0.255999-7.223958-2.845983-8.381951-4.367974a11.081935 11.081935 0 0 1-2.019988-9.077947l9.725943-44.803738a14.991912 14.991912 0 0 0-22.14387-16.161905l-53.309688 30.77782a14.985912 14.985912 0 0 0-7.153958 9.799942l-19.619885 90.379471c-1.235993 5.689967-6.175964 9.747943-11.427933 9.461944-4.597973-0.255999-7.225958-2.845983-8.383951-4.367974a11.079935 11.079935 0 0 1-2.019988-9.077947l9.725943-44.803738a14.991912 14.991912 0 0 0-22.14387-16.161905l-49.731709 28.713832a14.987912 14.987912 0 0 0-7.433956 11.631932 30.431822 30.431822 0 0 1-15.053912 23.605861c-14.501915 8.371951-33.105806 3.38398-41.477757-11.113934s-3.38598-33.105806 11.113935-41.477757a30.429822 30.429822 0 0 1 27.967836-1.233993 14.989912 14.989912 0 0 0 13.791919-0.621997L197.207844 680.99601a14.989912 14.989912 0 0 0-2.923982-27.255841l-43.663745-13.975918a11.019935 11.019935 0 0 1-6.479962-5.485967 10.999936 10.999936 0 0 1-0.699995-8.457951 11.023935 11.023935 0 0 1 5.481967-6.477962 10.999936 10.999936 0 0 1 8.459951-0.701996l88.78148 28.421834a14.979912 14.979912 0 0 0 12.063929-1.293993l53.307688-30.777819a14.989912 14.989912 0 0 0-2.923983-27.255841l-43.663744-13.977918a11.017935 11.017935 0 0 1-6.479962-5.483968 11.001936 11.001936 0 0 1-0.699996-8.45795 11.023935 11.023935 0 0 1 5.481968-6.477962 10.999936 10.999936 0 0 1 8.45995-0.701996l88.78148 28.421833a14.973912 14.973912 0 0 0 12.063929-1.295992l13.761919-7.945953a14.987912 14.987912 0 0 0 6.92396-17.0759 123.699275 123.699275 0 0 1-4.717973-33.781802 122.755281 122.755281 0 0 1 9.289946-47.017725 14.987912 14.987912 0 0 0-6.363963-18.69389l-18.937889-10.933936a14.991912 14.991912 0 0 0-12.063929-1.293993l-88.079484 28.197835c-5.543968 1.77799-11.521932-0.447997-13.907918-5.16597-2.075988-4.107976-1.145993-7.679955-0.407998-9.441944a11.079935 11.079935 0 0 1 6.85196-6.287964l43.663744-13.977918a14.987912 14.987912 0 0 0 2.925983-27.25584l-53.309688-30.77782a14.991912 14.991912 0 0 0-12.063929-1.293992l-88.077484 28.187835c-5.545968 1.77799-11.523932-0.447997-13.907919-5.16597-2.075988-4.109976-1.145993-7.681955-0.407997-9.443945a11.077935 11.077935 0 0 1 6.85396-6.287963l43.663744-13.977918a14.991912 14.991912 0 0 0 2.925983-27.25784l-49.733709-28.713832a14.989912 14.989912 0 0 0-13.791919-0.621996 30.427822 30.427822 0 0 1-27.969836-1.233993 30.167823 30.167823 0 0 1-14.147917-18.435892 30.161823 30.161823 0 0 1 3.033982-23.041865c8.371951-14.499915 26.975842-19.483886 41.477757-11.113935a30.435822 30.435822 0 0 1 15.053912 23.605862 14.991912 14.991912 0 0 0 7.433956 11.631932l49.733709 28.711831a14.991912 14.991912 0 0 0 22.14387-16.161905l-9.725943-44.801737c-0.629996-2.895983-0.091999-5.863966 1.509991-8.353951s4.077976-4.207975 6.973959-4.835972a11.011935 11.011935 0 0 1 8.351951 1.509991 11.025935 11.025935 0 0 1 4.837972 6.975959l19.777884 91.097466a14.985912 14.985912 0 0 0 7.153958 9.799943l53.307688 30.77782a14.987912 14.987912 0 0 0 22.14387-16.161906l-9.725943-44.801737a11.017935 11.017935 0 0 1 1.511991-8.353951 11.013935 11.013935 0 0 1 6.973959-4.835972c2.891983-0.629996 5.859966-0.091999 8.351951 1.509991s4.209975 4.079976 4.837972 6.973959l19.775884 91.097467a14.985912 14.985912 0 0 0 7.153958 9.799942l21.543874 12.437927a14.991912 14.991912 0 0 0 18.253893-2.543985c17.789896-18.333893 40.371763-30.541821 65.303617-35.303793a14.987912 14.987912 0 0 0 12.177929-14.723914v-27.627838a14.987912 14.987912 0 0 0-4.911971-11.095935l-68.457599-62.179635c-4.309975-3.913977-5.375969-10.20394-2.479985-14.627915 2.519985-3.851977 6.075964-4.833972 7.973953-5.07597a11.085935 11.085935 0 0 1 8.871948 2.791984l33.935801 30.823819a14.989912 14.989912 0 0 0 25.067853-11.095935v-61.557639a14.987912 14.987912 0 0 0-4.911971-11.095935l-68.459599-62.179636c-4.307975-3.913977-5.373969-10.20194-2.477985-14.627914 2.519985-3.851977 6.075964-4.833972 7.973953-5.07597a11.055935 11.055935 0 0 1 8.871948 2.791983l33.935801 30.82382a14.991912 14.991912 0 0 0 25.067853-11.095935V97.437429a14.989912 14.989912 0 0 0-6.357963-12.253928 30.433822 30.433822 0 0 1-12.915924-24.839855c0-16.741902 13.62192-30.361822 30.363822-30.361822s30.363822 13.61992 30.363822 30.361822c0 9.857942-4.827972 19.143888-12.915924 24.839855a14.989912 14.989912 0 0 0-6.357963 12.253928v57.425664a14.991912 14.991912 0 0 0 25.067853 11.095935l33.935801-30.82382a11.063935 11.063935 0 0 1 7.989954-2.867983 11.015935 11.015935 0 0 1 7.675955 3.621979c1.989988 2.191987 3.009982 5.027971 2.867983 7.985953s-1.427992 5.685967-3.621979 7.677955l-69.005596 62.675633a14.987912 14.987912 0 0 0-4.911971 11.095935v61.557639a14.991912 14.991912 0 0 0 25.067853 11.095935l33.935801-30.823819a10.979936 10.979936 0 0 1 7.989954-2.867984 10.999936 10.999936 0 0 1 7.673955 3.621979 11.021935 11.021935 0 0 1 2.869983 7.987953 11.013935 11.013935 0 0 1-3.621979 7.675955l-69.005596 62.675633a14.987912 14.987912 0 0 0-4.911971 11.095935v27.613838a14.989912 14.989912 0 0 0 12.185929 14.725914c24.965854 4.751972 47.573721 16.963901 65.379617 35.315793a14.991912 14.991912 0 0 0 18.253893 2.543985l21.543873-12.437927a14.985912 14.985912 0 0 0 7.153959-9.799942l19.775884-91.099467a11.019935 11.019935 0 0 1 4.837971-6.973959 11.011935 11.011935 0 0 1 8.353951-1.507991c2.893983 0.627996 5.369969 2.343986 6.97196 4.835972s2.139987 5.457968 1.509991 8.353951l-9.725943 44.803737a14.991912 14.991912 0 0 0 22.14387 16.161906l53.309688-30.77782a14.985912 14.985912 0 0 0 7.153958-9.799943l19.775884-91.097466a11.023935 11.023935 0 0 1 4.837971-6.973959 11.007936 11.007936 0 0 1 8.353951-1.509991 11.013935 11.013935 0 0 1 6.97196 4.835971 11.019935 11.019935 0 0 1 1.511991 8.353952l-9.725943 44.801737a14.991912 14.991912 0 0 0 22.14387 16.161905l49.733709-28.711831a14.991912 14.991912 0 0 0 7.433956-11.633932 30.431822 30.431822 0 0 1 15.053912-23.605862c14.501915-8.371951 33.107806-3.38598 41.477757 11.113935a30.173823 30.173823 0 0 1 3.033982 23.039865 30.171823 30.171823 0 0 1-14.147917 18.437892 30.423822 30.423822 0 0 1-27.967836 1.233993 14.989912 14.989912 0 0 0-13.791919 0.621996l-49.731709 28.713832a14.989912 14.989912 0 0 0 2.923983 27.25784l43.665744 13.977918a11.085935 11.085935 0 0 1 6.85196 6.285963c0.737996 1.76399 1.66599 5.335969-0.409998 9.443945-2.385986 4.719972-8.369951 6.939959-13.907918 5.16597l-88.079484-28.197835a14.999912 14.999912 0 0 0-12.063929 1.293992l-53.309688 30.77782a14.989912 14.989912 0 0 0 2.923983 27.25584l43.663744 13.977918a11.083935 11.083935 0 0 1 6.85196 6.287964c0.737996 1.76199 1.66599 5.333969-0.407998 9.441944-2.385986 4.719972-8.365951 6.937959-13.907918 5.16797l-88.081484-28.197835a14.999912 14.999912 0 0 0-12.06393 1.293993l-18.937889 10.933936a14.987912 14.987912 0 0 0-6.363962 18.69389 122.729281 122.729281 0 0 1 9.287945 47.017724 123.719275 123.719275 0 0 1-4.717972 33.781803 14.991912 14.991912 0 0 0 6.923959 17.075899l13.76392 7.945954a14.991912 14.991912 0 0 0 12.063929 1.295992l88.78148-28.421833a11.017935 11.017935 0 0 1 8.45995 0.701996 11.019935 11.019935 0 0 1 5.483968 6.479962c0.903995 2.819983 0.653996 5.821966-0.701996 8.45595s-3.657979 4.581973-6.479962 5.483968l-43.663744 13.977918A14.985912 14.985912 0 0 0 712.504825 614.996397l53.309688 30.777819a14.983912 14.983912 0 0 0 12.063929 1.293993l88.78148-28.421834a11.025935 11.025935 0 0 1 8.45995 0.701996 11.019935 11.019935 0 0 1 5.483968 6.479962 11.007936 11.007936 0 0 1-0.701996 8.45595 11.019935 11.019935 0 0 1-6.479962 5.483968L829.758138 653.746169a14.987912 14.987912 0 0 0-2.925983 27.255841l49.731709 28.713832a14.983912 14.983912 0 0 0 13.791919 0.621996 30.433822 30.433822 0 0 1 27.969836 1.233993c14.497915 8.371951 19.483886 26.977842 11.113935 41.477757-8.369951 14.497915-26.977842 19.485886-41.477757 11.113934a30.433822 30.433822 0 0 1-15.053912-23.603861 14.991912 14.991912 0 0 0-7.433956-11.633932l-49.733709-28.713832a14.987912 14.987912 0 0 0-22.14387 16.161905l9.725943 44.803738a11.077935 11.077935 0 0 1-2.019988 9.075947c-1.157993 1.521991-3.785978 4.111976-8.381951 4.367974-5.279969 0.261998-10.19594-3.773978-11.429933-9.461944l-0.843995-3.883978a14.981912 14.981912 0 0 0-17.827896-11.467932 14.989912 14.989912 0 0 0-11.467932 17.827895l0.843995 3.883977c4.329975 19.939883 22.559868 34.1318 42.395751 33.033807 12.133929-0.677996 23.275864-6.559962 30.567821-16.143906a41.01976 41.01976 0 0 0 7.459956-33.595803l-2.541985-11.707931 14.257917 8.231952a60.433646 60.433646 0 0 0 28.633832 38.787772c13.957918 8.057953 30.215823 10.19794 45.789732 6.027965 15.567909-4.171976 28.579833-14.157917 36.639785-28.115835 16.637903-28.821831 6.729961-65.799614-22.083871-82.435517z" p-id="4031" data-spm-anchor-id="a313x.manage_type_myprojects.0.i9.68d93a81rpKcXW" class="selected" fill="#dbdbdb"></path></svg>